# Exported from Wings 3D 0.94.02
mtllib cube.mtl
o cube6
#8 vertices, 6 faces
v -1.00000 -1.00000 1.00000
v -1.00000 1.00000 1.00000
v 1.00000 1.00000 1.00000
v 1.00000 -1.00000 1.00000
v -1.00000 -1.00000 -1.00000
v -1.00000 1.00000 -1.00000
v 1.00000 1.00000 -1.00000
v 1.00000 -1.00000 -1.00000
vn -0.577350 -0.577350 0.577350
vn -0.577350 0.577350 0.577350
vn 0.577350 0.577350 0.577350
vn 0.577350 -0.577350 0.577350
vn -0.577350 -0.577350 -0.577350
vn -0.577350 0.577350 -0.577350
vn 0.577350 0.577350 -0.577350
vn 0.577350 -0.577350 -0.577350
g cube6_default
usemtl_default
f 4//4 3//3 2//2 1//1
f 5//5 8//8 4//4 1//1
f 6//6 5//5 1//1 2//2
f 7//7 6//6 2//2 3//3
f 7//7 8//8 5//5 6//6
f 8//8 7//7 3//3 4//4
