# Exported from Wings 3D 0.94.02
mtllib icosa.mtl
o icosahedron0
#12 vertices, 20 faces
v -1.05146 0.00000e+0 1.70130
v 1.05146 0.00000e+0 1.70130
v -1.05146 0.00000e+0 -1.70130
v 1.05146 0.00000e+0 -1.70130
v 0.00000e+0 1.70130 1.05146
v 0.00000e+0 1.70130 -1.05146
v 0.00000e+0 -1.70130 1.05146
v 0.00000e+0 -1.70130 -1.05146
v 1.70130 1.05146 0.00000e+0
v -1.70130 1.05146 0.00000e+0
v 1.70130 -1.05146 0.00000e+0
v -1.70130 -1.05146 0.00000e+0
vn -0.525731 -1.39711e-17 0.850651
vn 0.525731 0.00000e+0 0.850651
vn -0.525731 2.79423e-17 -0.850651
vn 0.525731 -2.79423e-17 -0.850651
vn 0.00000e+0 0.850651 0.525731
vn 2.79423e-17 0.850651 -0.525731
vn 2.79423e-17 -0.850651 0.525731
vn -2.79423e-17 -0.850651 -0.525731
vn 0.850651 0.525731 -2.79423e-17
vn -0.850651 0.525731 -2.79423e-17
vn 0.850651 -0.525731 0.00000e+0
vn -0.850651 -0.525731 -2.79423e-17
g icosahedron0_default
usemtl_default
f 5//5 1//1 2//2
f 6//6 4//4 3//3
f 7//7 2//2 1//1
f 8//8 3//3 4//4
f 9//9 4//4 6//6
f 9//9 5//5 2//2
f 9//9 6//6 5//5
f 10//10 1//1 5//5
f 10//10 5//5 6//6
f 10//10 6//6 3//3
f 11//11 2//2 7//7
f 11//11 4//4 9//9
f 11//11 7//7 8//8
f 11//11 8//8 4//4
f 11//11 9//9 2//2
f 12//12 1//1 10//10
f 12//12 3//3 8//8
f 12//12 7//7 1//1
f 12//12 8//8 7//7
f 12//12 10//10 3//3
